<?xml version="1.0" encoding="UTF-8"?><svg id="_イヤー_1" xmlns="http://www.w3.org/2000/svg" viewBox="0 0 350 180"><defs><style>.cls-1{fill:#191919;}</style></defs><g><path class="cls-1" d="M98.77,66.42c-.11,0-.22-.02-.32-.05L14.77,40.76c-.46-.14-.78-.57-.78-1.06s.32-.92,.78-1.06L98.45,13.03c.21-.06,.44-.06,.65,0l83.67,25.61c.46,.14,.78,.57,.78,1.06s-.32,.91-.78,1.06l-83.67,25.61c-.11,.03-.22,.05-.32,.05ZM18.87,39.7l79.9,24.46,79.9-24.46L98.77,15.24,18.87,39.7Z"/><path class="cls-1" d="M99.2,100.15c-.11,0-.21-.02-.32-.05L13.5,74.48c-.47-.14-.79-.57-.79-1.06v-25.62c0-.35,.16-.68,.44-.89,.28-.21,.64-.27,.98-.17l85.06,25.52,85.07-25.52c.33-.1,.7-.04,.98,.17,.28,.21,.45,.54,.45,.89v25.62c0,.49-.32,.92-.79,1.06l-85.38,25.62c-.1,.03-.21,.05-.32,.05ZM14.92,72.6l84.28,25.28,84.28-25.28v-23.31l-83.96,25.19c-.2,.06-.43,.06-.63,0L14.92,49.3v23.31Z"/><path class="cls-1" d="M99.2,100.15c-.61,0-1.1-.5-1.1-1.11v-25.61c0-.61,.5-1.11,1.1-1.11s1.1,.5,1.1,1.11v25.61c0,.61-.5,1.11-1.1,1.11Z"/><path class="cls-1" d="M99.2,134.29c-.11,0-.21-.02-.32-.05L13.5,108.64c-.47-.14-.79-.57-.79-1.06v-25.62c0-.35,.16-.68,.44-.89,.28-.21,.64-.27,.98-.17l85.06,25.52,85.07-25.52c.33-.1,.7-.04,.98,.17,.28,.21,.45,.54,.45,.89v25.62c0,.49-.32,.92-.79,1.06l-85.38,25.61c-.1,.03-.21,.05-.32,.05ZM14.92,106.76l84.28,25.28,84.28-25.28v-23.31l-83.96,25.19c-.2,.06-.43,.06-.63,0L14.92,83.45v23.31Z"/><path class="cls-1" d="M99.2,134.29c-.61,0-1.1-.49-1.1-1.1v-25.61c0-.61,.5-1.1,1.1-1.1s1.1,.5,1.1,1.1v25.61c0,.61-.5,1.1-1.1,1.1Z"/><path class="cls-1" d="M99.2,169.3c-.11,0-.21-.02-.32-.05L13.5,143.64c-.47-.14-.79-.57-.79-1.06v-25.61c0-.35,.16-.68,.44-.89,.28-.21,.64-.27,.98-.17l85.06,25.52,85.07-25.52c.33-.1,.7-.04,.98,.17,.28,.21,.45,.54,.45,.89v25.61c0,.49-.32,.92-.79,1.06l-85.38,25.61c-.1,.03-.21,.05-.32,.05ZM14.92,141.76l84.28,25.28,84.28-25.28v-23.3l-83.96,25.18c-.2,.06-.43,.06-.63,0L14.92,118.45v23.3Z"/><path class="cls-1" d="M99.2,169.3c-.61,0-1.1-.5-1.1-1.11v-25.62c0-.61,.5-1.1,1.1-1.1s1.1,.49,1.1,1.1v25.62c0,.61-.5,1.11-1.1,1.11Z"/></g><g><path d="M219.47,75.93h-8.98l-1.56,9.86h-6.12l7.55-42.56h8.91l8.09,42.56h-6.19l-1.7-9.86Zm-.82-4.96l-3.88-22.44-3.54,22.44h7.41Z"/><path d="M250.51,55.66v-5.64c0-1.63-.41-1.97-2.04-1.97h-3.47c-1.63,0-2.04,.34-2.04,1.97v29.03c0,1.63,.41,1.97,2.04,1.97h3.47c1.63,0,2.04-.34,2.04-1.97v-10.4h-3.4v-4.76h9.59v15.91c0,3.94-1.97,6.05-6.32,6.05h-7.28c-4.35,0-6.32-2.11-6.32-6.05v-30.6c0-3.88,1.97-5.98,6.32-5.98h7.28c4.35,0,6.32,2.11,6.32,5.98v6.46h-6.19Z"/><path d="M276.45,43.22v42.56h-6.12V43.22h6.12Z"/><path d="M307.36,80.82v4.96h-16.66V43.22h6.12v37.6h10.54Z"/><path d="M336.93,80.82v4.96h-18.49V43.22h18.02v4.96h-11.83v13.12h9.79v4.96h-9.79v14.55h12.31Z"/><path d="M215.77,124.45c0-1.63-.34-1.97-1.97-1.97h-5.03c-4.35,0-6.19-2.18-6.19-6.05v-11.22c0-3.88,1.97-5.98,6.32-5.98h6.66c4.42,0,6.32,2.11,6.32,5.98v6.25h-6.19v-5.3c0-1.63-.41-1.97-2.04-1.97h-2.86c-1.63,0-2.04,.34-2.04,1.97v9.45c0,1.63,.41,1.97,2.04,1.97h4.96c4.35,0,6.26,2.11,6.26,5.98v12.24c0,3.88-1.97,5.98-6.39,5.98h-6.6c-4.35,0-6.32-2.11-6.32-5.98v-6.26h6.19v5.3c0,1.63,.41,1.97,2.04,1.97h2.86c1.63,0,1.97-.34,1.97-1.97v-10.4Z"/><path d="M245.29,104.18h-7.14v37.6h-6.12v-37.6h-7.14v-4.96h20.4v4.96Z"/><path d="M269.29,99.22v36.58c0,3.88-1.97,5.98-6.39,5.98h-7.55c-4.42,0-6.39-2.11-6.39-5.98v-36.58h6.19v35.63c0,1.63,.41,1.97,2.04,1.97h3.88c1.7,0,2.04-.34,2.04-1.97v-35.63h6.19Z"/><path d="M291.12,99.22c4.35,0,6.32,2.11,6.32,5.98v30.6c0,3.88-1.97,5.98-6.32,5.98h-14.82v-42.56h14.82Zm.14,6.8c0-1.63-.41-1.97-2.04-1.97h-6.73v32.91h6.73c1.63,0,2.04-.34,2.04-1.97v-28.96Z"/><path d="M310.84,99.22v42.56h-6.12v-42.56h6.12Z"/><path d="M332.05,99.22c4.42,0,6.32,2.11,6.32,5.98v30.6c0,3.88-1.9,5.98-6.32,5.98h-7.55c-4.42,0-6.39-2.11-6.39-5.98v-30.6c0-3.88,1.97-5.98,6.39-5.98h7.55Zm.2,6.94c0-1.63-.41-1.97-2.04-1.97h-3.94c-1.63,0-1.97,.34-1.97,1.97v28.69c0,1.63,.34,1.97,1.97,1.97h3.94c1.63,0,2.04-.34,2.04-1.97v-28.69Z"/></g></svg>